<svg xmlns="http://www.w3.org/2000/svg" viewBox="0 0 883 1050" width="883" height="1050">
  <path d="M 441.5,0 C 320,62 180,116 0,136 C 0,430 52,755 260,965 C 334,1033 394,1047 441.5,1050 C 489,1047 549,1033 623,965 C 831,755 883,430 883,136 C 703,116 563,62 441.5,0 Z" fill="#ffffff" stroke="#000000" stroke-width="2.2" stroke-linejoin="round"/>
  <path d="M 441.5,43 C 338,92 213,145 34,168 C 34,425 79,721 277,918 C 344,977 398,1003 441.5,1011 C 485,1003 539,977 606,918 C 804,721 849,425 849,168 C 670,145 545,92 441.5,43 Z" fill="none" stroke="#1f4f7a" stroke-width="28" stroke-linejoin="round"/>
  <path d="M 560.5,762.5 Q 561.0,762.0 560.5,762.5 Q 560.0,763.0 560.0,763.5 Q 560.0,764.0 560.0,764.5 Q 560.0,765.0 560.0,765.5 Q 560.0,766.0 560.0,766.5 Q 560.0,767.0 560.0,767.5 Q 560.0,768.0 560.0,768.5 Q 560.0,769.0 560.0,769.5 Q 560.0,770.0 560.0,770.5 Q 560.0,771.0 560.0,771.5 Q 560.0,772.0 560.0,772.5 Q 560.0,773.0 560.0,773.5 Q 560.0,774.0 560.5,774.5 Q 561.0,775.0 561.5,775.0 Q 562.0,775.0 562.5,775.0 Q 563.0,775.0 563.5,775.0 Q 564.0,775.0 564.5,775.0 Q 565.0,775.0 565.5,775.0 Q 566.0,775.0 566.5,775.0 Q 567.0,775.0 567.5,775.0 Q 568.0,775.0 568.5,775.0 Q 569.0,775.0 569.5,775.0 Q 570.0,775.0 570.5,775.0 Q 571.0,775.0 571.5,775.0 Q 572.0,775.0 572.5,775.0 Q 573.0,775.0 573.5,775.0 Q 574.0,775.0 574.5,775.0 Q 575.0,775.0 575.5,775.0 Q 576.0,775.0 576.5,775.0 Q 577.0,775.0 577.5,775.0 Q 578.0,775.0 578.5,775.5 Q 579.0,776.0 579.5,776.5 Q 580.0,777.0 580.0,777.5 Q 580.0,778.0 580.0,778.5 Q 580.0,779.0 580.0,779.5 Q 580.0,780.0 580.0,780.5 Q 580.0,781.0 580.0,781.5 Q 580.0,782.0 580.0,782.5 Q 580.0,783.0 580.0,783.5 Q 580.0,784.0 580.0,784.5 Q 580.0,785.0 580.0,785.5 Q 580.0,786.0 580.0,786.5 Q 580.0,787.0 580.0,787.5 Q 580.0,788.0 580.0,788.5 Q 580.0,789.0 580.0,789.5 Q 580.0,790.0 580.0,790.5 Q 580.0,791.0 580.0,791.5 Q 580.0,792.0 580.0,792.5 Q 580.0,793.0 580.0,793.5 Q 580.0,794.0 580.0,794.5 Q 580.0,795.0 580.0,795.5 Q 580.0,796.0 580.0,796.5 Q 580.0,797.0 580.0,797.5 Q 580.0,798.0 580.0,798.5 Q 580.0,799.0 580.0,799.5 Q 580.0,800.0 580.0,800.5 Q 580.0,801.0 580.0,801.5 Q 580.0,802.0 580.0,802.5 Q 580.0,803.0 580.0,803.5 Q 580.0,804.0 580.0,804.5 Q 580.0,805.0 580.0,805.5 Q 580.0,806.0 580.0,806.5 Q 580.0,807.0 580.0,807.5 Q 580.0,808.0 580.0,808.5 Q 580.0,809.0 580.0,809.5 Q 580.0,810.0 580.0,810.5 Q 580.0,811.0 580.0,811.5 Q 580.0,812.0 580.0,812.5 Q 580.0,813.0 580.0,813.5 Q 580.0,814.0 580.0,814.5 Q 580.0,815.0 580.0,815.5 Q 580.0,816.0 580.0,816.5 Q 580.0,817.0 580.0,817.5 Q 580.0,818.0 580.0,818.5 Q 580.0,819.0 580.5,819.5 Q 581.0,820.0 581.5,820.0 Q 582.0,820.0 582.5,820.0 Q 583.0,820.0 583.5,820.0 Q 584.0,820.0 584.5,820.0 Q 585.0,820.0 585.5,820.0 Q 586.0,820.0 586.5,820.0 Q 587.0,820.0 587.5,820.0 Q 588.0,820.0 588.5,820.0 Q 589.0,820.0 589.5,820.0 Q 590.0,820.0 590.5,820.0 Q 591.0,820.0 591.5,820.0 Q 592.0,820.0 592.5,820.0 Q 593.0,820.0 593.5,820.0 Q 594.0,820.0 594.5,820.0 Q 595.0,820.0 595.5,820.0 Q 596.0,820.0 596.5,819.5 Q 597.0,819.0 597.0,818.5 Q 597.0,818.0 597.0,817.5 Q 597.0,817.0 597.0,816.5 Q 597.0,816.0 597.0,815.5 Q 597.0,815.0 597.0,814.5 Q 597.0,814.0 597.0,813.5 Q 597.0,813.0 597.0,812.5 Q 597.0,812.0 597.0,811.5 Q 597.0,811.0 597.0,810.5 Q 597.0,810.0 597.0,809.5 Q 597.0,809.0 597.0,808.5 Q 597.0,808.0 597.0,807.5 Q 597.0,807.0 597.0,806.5 Q 597.0,806.0 597.0,805.5 Q 597.0,805.0 597.0,804.5 Q 597.0,804.0 597.0,803.5 Q 597.0,803.0 597.0,802.5 Q 597.0,802.0 597.0,801.5 Q 597.0,801.0 597.0,800.5 Q 597.0,800.0 597.0,799.5 Q 597.0,799.0 597.0,798.5 Q 597.0,798.0 597.0,797.5 Q 597.0,797.0 597.0,796.5 Q 597.0,796.0 597.0,795.5 Q 597.0,795.0 597.0,794.5 Q 597.0,794.0 597.0,793.5 Q 597.0,793.0 597.0,792.5 Q 597.0,792.0 597.0,791.5 Q 597.0,791.0 597.0,790.5 Q 597.0,790.0 597.0,789.5 Q 597.0,789.0 597.0,788.5 Q 597.0,788.0 597.0,787.5 Q 597.0,787.0 597.0,786.5 Q 597.0,786.0 597.0,785.5 Q 597.0,785.0 597.0,784.5 Q 597.0,784.0 597.0,783.5 Q 597.0,783.0 597.0,782.5 Q 597.0,782.0 597.0,781.5 Q 597.0,781.0 597.0,780.5 Q 597.0,780.0 597.0,779.5 Q 597.0,779.0 597.0,778.5 Q 597.0,778.0 597.0,777.5 Q 597.0,777.0 597.5,776.5 Q 598.0,776.0 598.5,775.5 Q 599.0,775.0 599.5,775.0 Q 600.0,775.0 600.5,775.0 Q 601.0,775.0 601.5,775.0 Q 602.0,775.0 602.5,775.0 Q 603.0,775.0 603.5,775.0 Q 604.0,775.0 604.5,775.0 Q 605.0,775.0 605.5,775.0 Q 606.0,775.0 606.5,775.0 Q 607.0,775.0 607.5,775.0 Q 608.0,775.0 608.5,775.0 Q 609.0,775.0 609.5,775.0 Q 610.0,775.0 610.5,775.0 Q 611.0,775.0 611.5,775.0 Q 612.0,775.0 612.5,775.0 Q 613.0,775.0 613.5,775.0 Q 614.0,775.0 614.5,775.0 Q 615.0,775.0 615.5,775.0 Q 616.0,775.0 616.5,774.5 Q 617.0,774.0 617.0,773.5 Q 617.0,773.0 617.0,772.5 Q 617.0,772.0 617.0,771.5 Q 617.0,771.0 617.0,770.5 Q 617.0,770.0 617.0,769.5 Q 617.0,769.0 617.0,768.5 Q 617.0,768.0 617.0,767.5 Q 617.0,767.0 617.0,766.5 Q 617.0,766.0 617.0,765.5 Q 617.0,765.0 617.0,764.5 Q 617.0,764.0 617.0,763.5 Q 617.0,763.0 616.5,762.5 Q 616.0,762.0 615.5,762.0 Q 615.0,762.0 614.5,762.0 Q 614.0,762.0 613.5,762.0 Q 613.0,762.0 612.5,762.0 Q 612.0,762.0 611.5,762.0 Q 611.0,762.0 610.5,762.0 Q 610.0,762.0 609.5,762.0 Q 609.0,762.0 608.5,762.0 Q 608.0,762.0 607.5,762.0 Q 607.0,762.0 606.5,762.0 Q 606.0,762.0 605.5,762.0 Q 605.0,762.0 604.5,762.0 Q 604.0,762.0 603.5,762.0 Q 603.0,762.0 602.5,762.0 Q 602.0,762.0 601.5,762.0 Q 601.0,762.0 600.5,762.0 Q 600.0,762.0 599.5,762.0 Q 599.0,762.0 598.5,762.0 Q 598.0,762.0 597.5,762.0 Q 597.0,762.0 596.5,762.0 Q 596.0,762.0 595.5,762.0 Q 595.0,762.0 594.5,762.0 Q 594.0,762.0 593.5,762.0 Q 593.0,762.0 592.5,762.0 Q 592.0,762.0 591.5,762.0 Q 591.0,762.0 590.5,762.0 Q 590.0,762.0 589.5,762.0 Q 589.0,762.0 588.5,762.0 Q 588.0,762.0 587.5,762.0 Q 587.0,762.0 586.5,762.0 Q 586.0,762.0 585.5,762.0 Q 585.0,762.0 584.5,762.0 Q 584.0,762.0 583.5,762.0 Q 583.0,762.0 582.5,762.0 Q 582.0,762.0 581.5,762.0 Q 581.0,762.0 580.5,762.0 Q 580.0,762.0 579.5,762.0 Q 579.0,762.0 578.5,762.0 Q 578.0,762.0 577.5,762.0 Q 577.0,762.0 576.5,762.0 Q 576.0,762.0 575.5,762.0 Q 575.0,762.0 574.5,762.0 Q 574.0,762.0 573.5,762.0 Q 573.0,762.0 572.5,762.0 Q 572.0,762.0 571.5,762.0 Q 571.0,762.0 570.5,762.0 Q 570.0,762.0 569.5,762.0 Q 569.0,762.0 568.5,762.0 Q 568.0,762.0 567.5,762.0 Q 567.0,762.0 566.5,762.0 Q 566.0,762.0 565.5,762.0 Q 565.0,762.0 564.5,762.0 Q 564.0,762.0 563.5,762.0 Q 563.0,762.0 562.5,762.0 Q 562.0,762.0 561.5,762.0 Z" fill="#1f4f7a" fill-rule="evenodd"/>
<path d="M 502.5,763.0 Q 503.0,762.0 502.5,763.0 Q 502.0,764.0 502.0,765.0 Q 502.0,766.0 502.0,767.0 Q 502.0,768.0 502.0,769.0 Q 502.0,770.0 502.0,771.0 Q 502.0,772.0 502.0,773.0 Q 502.0,774.0 502.0,775.0 Q 502.0,776.0 502.0,777.0 Q 502.0,778.0 502.0,779.0 Q 502.0,780.0 502.0,781.0 Q 502.0,782.0 502.0,783.0 Q 502.0,784.0 502.0,785.0 Q 502.0,786.0 502.0,787.0 Q 502.0,788.0 502.0,789.0 Q 502.0,790.0 502.0,791.0 Q 502.0,792.0 502.0,793.0 Q 502.0,794.0 502.0,795.0 Q 502.0,796.0 502.0,797.0 Q 502.0,798.0 502.0,799.0 Q 502.0,800.0 502.0,801.0 Q 502.0,802.0 502.0,803.0 Q 502.0,804.0 502.0,805.0 Q 502.0,806.0 502.0,807.0 Q 502.0,808.0 502.0,809.0 Q 502.0,810.0 502.0,811.0 Q 502.0,812.0 502.0,813.0 Q 502.0,814.0 502.0,815.0 Q 502.0,816.0 502.0,817.0 Q 502.0,818.0 502.5,819.0 Q 503.0,820.0 504.0,820.0 Q 505.0,820.0 506.0,820.0 Q 507.0,820.0 508.0,820.0 Q 509.0,820.0 510.0,820.0 Q 511.0,820.0 512.0,820.0 Q 513.0,820.0 514.0,820.0 Q 515.0,820.0 516.0,820.0 Q 517.0,820.0 518.0,820.0 Q 519.0,820.0 520.0,820.0 Q 521.0,820.0 522.0,820.0 Q 523.0,820.0 524.0,820.0 Q 525.0,820.0 526.0,820.0 Q 527.0,820.0 528.0,820.0 Q 529.0,820.0 530.0,820.0 Q 531.0,820.0 532.0,820.0 Q 533.0,820.0 534.0,820.0 Q 535.0,820.0 536.0,820.0 Q 537.0,820.0 538.0,820.0 Q 539.0,820.0 540.0,820.0 Q 541.0,820.0 542.0,820.0 Q 543.0,820.0 544.0,820.0 Q 545.0,820.0 546.0,820.0 Q 547.0,820.0 548.0,820.0 Q 549.0,820.0 550.0,820.0 Q 551.0,820.0 551.5,819.0 Q 552.0,818.0 552.0,817.0 Q 552.0,816.0 552.0,815.0 Q 552.0,814.0 552.0,813.0 Q 552.0,812.0 552.0,811.0 Q 552.0,810.0 552.0,809.0 Q 552.0,808.0 551.0,807.5 Q 550.0,807.0 549.0,807.0 Q 548.0,807.0 547.0,807.0 Q 546.0,807.0 545.0,807.0 Q 544.0,807.0 543.0,807.0 Q 542.0,807.0 541.0,807.0 Q 540.0,807.0 539.0,807.0 Q 538.0,807.0 537.0,807.0 Q 536.0,807.0 535.0,807.0 Q 534.0,807.0 533.0,807.0 Q 532.0,807.0 531.0,807.0 Q 530.0,807.0 529.0,807.0 Q 528.0,807.0 527.0,807.0 Q 526.0,807.0 525.0,807.0 Q 524.0,807.0 523.0,807.0 Q 522.0,807.0 521.0,806.5 Q 520.0,806.0 519.5,805.0 Q 519.0,804.0 519.0,803.0 Q 519.0,802.0 519.0,801.0 Q 519.0,800.0 519.5,799.0 Q 520.0,798.0 521.0,797.5 Q 522.0,797.0 523.0,797.0 Q 524.0,797.0 525.0,797.0 Q 526.0,797.0 527.0,797.0 Q 528.0,797.0 529.0,797.0 Q 530.0,797.0 531.0,797.0 Q 532.0,797.0 533.0,797.0 Q 534.0,797.0 535.0,797.0 Q 536.0,797.0 537.0,797.0 Q 538.0,797.0 539.0,797.0 Q 540.0,797.0 541.0,797.0 Q 542.0,797.0 543.0,797.0 Q 544.0,797.0 545.0,797.0 Q 546.0,797.0 546.5,796.0 Q 547.0,795.0 547.0,794.0 Q 547.0,793.0 547.0,792.0 Q 547.0,791.0 547.0,790.0 Q 547.0,789.0 547.0,788.0 Q 547.0,787.0 547.0,786.0 Q 547.0,785.0 546.0,784.5 Q 545.0,784.0 544.0,784.0 Q 543.0,784.0 542.0,784.0 Q 541.0,784.0 540.0,784.0 Q 539.0,784.0 538.0,784.0 Q 537.0,784.0 536.0,784.0 Q 535.0,784.0 534.0,784.0 Q 533.0,784.0 532.0,784.0 Q 531.0,784.0 530.0,784.0 Q 529.0,784.0 528.0,784.0 Q 527.0,784.0 526.0,784.0 Q 525.0,784.0 524.0,784.0 Q 523.0,784.0 522.0,784.0 Q 521.0,784.0 520.0,783.0 Q 519.0,782.0 519.0,781.0 Q 519.0,780.0 519.0,779.0 Q 519.0,778.0 519.0,777.0 Q 519.0,776.0 520.0,775.0 Q 521.0,774.0 522.0,774.0 Q 523.0,774.0 524.0,774.0 Q 525.0,774.0 526.0,774.0 Q 527.0,774.0 528.0,774.0 Q 529.0,774.0 530.0,774.0 Q 531.0,774.0 532.0,774.0 Q 533.0,774.0 534.0,774.0 Q 535.0,774.0 536.0,774.0 Q 537.0,774.0 538.0,774.0 Q 539.0,774.0 540.0,774.0 Q 541.0,774.0 542.0,774.0 Q 543.0,774.0 544.0,774.0 Q 545.0,774.0 546.0,774.0 Q 547.0,774.0 548.0,774.0 Q 549.0,774.0 550.0,774.0 Q 551.0,774.0 551.5,773.0 Q 552.0,772.0 552.0,771.0 Q 552.0,770.0 552.0,769.0 Q 552.0,768.0 552.0,767.0 Q 552.0,766.0 552.0,765.0 Q 552.0,764.0 551.5,763.0 Q 551.0,762.0 550.0,762.0 Q 549.0,762.0 548.0,762.0 Q 547.0,762.0 546.0,762.0 Q 545.0,762.0 544.0,762.0 Q 543.0,762.0 542.0,762.0 Q 541.0,762.0 540.0,762.0 Q 539.0,762.0 538.0,762.0 Q 537.0,762.0 536.0,762.0 Q 535.0,762.0 534.0,762.0 Q 533.0,762.0 532.0,762.0 Q 531.0,762.0 530.0,762.0 Q 529.0,762.0 528.0,762.0 Q 527.0,762.0 526.0,762.0 Q 525.0,762.0 524.0,762.0 Q 523.0,762.0 522.0,762.0 Q 521.0,762.0 520.0,762.0 Q 519.0,762.0 518.0,762.0 Q 517.0,762.0 516.0,762.0 Q 515.0,762.0 514.0,762.0 Q 513.0,762.0 512.0,762.0 Q 511.0,762.0 510.0,762.0 Q 509.0,762.0 508.0,762.0 Q 507.0,762.0 506.0,762.0 Q 505.0,762.0 504.0,762.0 Z" fill="#1f4f7a" fill-rule="evenodd"/>
<path d="M 430.0,763.0 Q 430.0,762.0 430.0,763.0 Q 430.0,764.0 430.5,765.0 Q 431.0,766.0 431.0,767.0 Q 431.0,768.0 431.5,769.0 Q 432.0,770.0 432.5,771.0 Q 433.0,772.0 433.0,773.0 Q 433.0,774.0 433.5,775.0 Q 434.0,776.0 434.5,777.0 Q 435.0,778.0 435.0,779.0 Q 435.0,780.0 435.5,781.0 Q 436.0,782.0 436.5,783.0 Q 437.0,784.0 437.5,785.0 Q 438.0,786.0 438.0,787.0 Q 438.0,788.0 438.5,789.0 Q 439.0,790.0 439.5,791.0 Q 440.0,792.0 440.0,793.0 Q 440.0,794.0 440.5,795.0 Q 441.0,796.0 441.5,797.0 Q 442.0,798.0 442.0,799.0 Q 442.0,800.0 442.5,801.0 Q 443.0,802.0 443.5,803.0 Q 444.0,804.0 444.5,805.0 Q 445.0,806.0 445.0,807.0 Q 445.0,808.0 445.5,809.0 Q 446.0,810.0 446.5,811.0 Q 447.0,812.0 447.0,813.0 Q 447.0,814.0 447.5,815.0 Q 448.0,816.0 448.5,817.0 Q 449.0,818.0 449.5,819.0 Q 450.0,820.0 451.0,820.0 Q 452.0,820.0 453.0,820.0 Q 454.0,820.0 455.0,820.0 Q 456.0,820.0 457.0,820.0 Q 458.0,820.0 459.0,820.0 Q 460.0,820.0 461.0,820.0 Q 462.0,820.0 463.0,820.0 Q 464.0,820.0 465.0,820.0 Q 466.0,820.0 467.0,820.0 Q 468.0,820.0 469.0,820.0 Q 470.0,820.0 470.5,819.0 Q 471.0,818.0 471.5,817.0 Q 472.0,816.0 472.5,815.0 Q 473.0,814.0 473.0,813.0 Q 473.0,812.0 473.5,811.0 Q 474.0,810.0 474.5,809.0 Q 475.0,808.0 475.0,807.0 Q 475.0,806.0 475.5,805.0 Q 476.0,804.0 476.5,803.0 Q 477.0,802.0 477.5,801.0 Q 478.0,800.0 478.0,799.0 Q 478.0,798.0 478.5,797.0 Q 479.0,796.0 479.5,795.0 Q 480.0,794.0 480.0,793.0 Q 480.0,792.0 480.5,791.0 Q 481.0,790.0 481.5,789.0 Q 482.0,788.0 482.5,787.0 Q 483.0,786.0 483.0,785.0 Q 483.0,784.0 483.5,783.0 Q 484.0,782.0 484.5,781.0 Q 485.0,780.0 485.0,779.0 Q 485.0,778.0 485.5,777.0 Q 486.0,776.0 486.5,775.0 Q 487.0,774.0 487.5,773.0 Q 488.0,772.0 488.0,771.0 Q 488.0,770.0 488.5,769.0 Q 489.0,768.0 489.5,767.0 Q 490.0,766.0 490.5,765.0 Q 491.0,764.0 490.5,763.0 Q 490.0,762.0 489.0,762.0 Q 488.0,762.0 487.0,762.0 Q 486.0,762.0 485.0,762.0 Q 484.0,762.0 483.0,762.0 Q 482.0,762.0 481.0,762.0 Q 480.0,762.0 479.0,762.0 Q 478.0,762.0 477.0,762.0 Q 476.0,762.0 475.0,762.0 Q 474.0,762.0 473.5,763.0 Q 473.0,764.0 472.5,765.0 Q 472.0,766.0 471.5,767.0 Q 471.0,768.0 471.0,769.0 Q 471.0,770.0 470.5,771.0 Q 470.0,772.0 470.0,773.0 Q 470.0,774.0 469.5,775.0 Q 469.0,776.0 469.0,777.0 Q 469.0,778.0 468.5,779.0 Q 468.0,780.0 467.5,781.0 Q 467.0,782.0 467.0,783.0 Q 467.0,784.0 466.5,785.0 Q 466.0,786.0 465.5,787.0 Q 465.0,788.0 465.0,789.0 Q 465.0,790.0 464.5,791.0 Q 464.0,792.0 464.0,793.0 Q 464.0,794.0 463.5,795.0 Q 463.0,796.0 462.5,797.0 Q 462.0,798.0 461.5,799.0 Q 461.0,800.0 460.0,799.5 Q 459.0,799.0 458.5,798.0 Q 458.0,797.0 458.0,796.0 Q 458.0,795.0 457.5,794.0 Q 457.0,793.0 456.5,792.0 Q 456.0,791.0 456.0,790.0 Q 456.0,789.0 455.5,788.0 Q 455.0,787.0 455.0,786.0 Q 455.0,785.0 454.5,784.0 Q 454.0,783.0 453.5,782.0 Q 453.0,781.0 453.0,780.0 Q 453.0,779.0 452.5,778.0 Q 452.0,777.0 451.5,776.0 Q 451.0,775.0 451.0,774.0 Q 451.0,773.0 451.0,772.0 Q 451.0,771.0 450.5,770.0 Q 450.0,769.0 449.5,768.0 Q 449.0,767.0 449.0,766.0 Q 449.0,765.0 448.5,764.0 Q 448.0,763.0 447.0,762.5 Q 446.0,762.0 445.0,762.0 Q 444.0,762.0 443.0,762.0 Q 442.0,762.0 441.0,762.0 Q 440.0,762.0 439.0,762.0 Q 438.0,762.0 437.0,762.0 Q 436.0,762.0 435.0,762.0 Q 434.0,762.0 433.0,762.0 Q 432.0,762.0 431.0,762.0 Z" fill="#1f4f7a" fill-rule="evenodd"/>
<path d="M 371.5,762.5 Q 372.0,762.0 371.5,762.5 Q 371.0,763.0 371.0,763.5 Q 371.0,764.0 371.0,764.5 Q 371.0,765.0 371.0,765.5 Q 371.0,766.0 371.0,766.5 Q 371.0,767.0 371.0,767.5 Q 371.0,768.0 371.0,768.5 Q 371.0,769.0 371.0,769.5 Q 371.0,770.0 371.0,770.5 Q 371.0,771.0 371.0,771.5 Q 371.0,772.0 371.0,772.5 Q 371.0,773.0 371.0,773.5 Q 371.0,774.0 371.0,774.5 Q 371.0,775.0 371.0,775.5 Q 371.0,776.0 371.0,776.5 Q 371.0,777.0 371.0,777.5 Q 371.0,778.0 371.0,778.5 Q 371.0,779.0 371.0,779.5 Q 371.0,780.0 371.0,780.5 Q 371.0,781.0 371.0,781.5 Q 371.0,782.0 371.0,782.5 Q 371.0,783.0 371.0,783.5 Q 371.0,784.0 371.0,784.5 Q 371.0,785.0 371.0,785.5 Q 371.0,786.0 371.0,786.5 Q 371.0,787.0 371.0,787.5 Q 371.0,788.0 371.0,788.5 Q 371.0,789.0 371.0,789.5 Q 371.0,790.0 371.0,790.5 Q 371.0,791.0 371.0,791.5 Q 371.0,792.0 371.0,792.5 Q 371.0,793.0 371.0,793.5 Q 371.0,794.0 371.0,794.5 Q 371.0,795.0 371.0,795.5 Q 371.0,796.0 371.0,796.5 Q 371.0,797.0 371.0,797.5 Q 371.0,798.0 371.0,798.5 Q 371.0,799.0 371.0,799.5 Q 371.0,800.0 371.0,800.5 Q 371.0,801.0 371.0,801.5 Q 371.0,802.0 371.0,802.5 Q 371.0,803.0 371.0,803.5 Q 371.0,804.0 371.0,804.5 Q 371.0,805.0 371.0,805.5 Q 371.0,806.0 371.0,806.5 Q 371.0,807.0 371.0,807.5 Q 371.0,808.0 371.0,808.5 Q 371.0,809.0 371.0,809.5 Q 371.0,810.0 371.0,810.5 Q 371.0,811.0 371.0,811.5 Q 371.0,812.0 371.0,812.5 Q 371.0,813.0 371.0,813.5 Q 371.0,814.0 371.0,814.5 Q 371.0,815.0 371.0,815.5 Q 371.0,816.0 371.0,816.5 Q 371.0,817.0 371.0,817.5 Q 371.0,818.0 371.0,818.5 Q 371.0,819.0 371.5,819.5 Q 372.0,820.0 372.5,820.0 Q 373.0,820.0 373.5,820.0 Q 374.0,820.0 374.5,820.0 Q 375.0,820.0 375.5,820.0 Q 376.0,820.0 376.5,820.0 Q 377.0,820.0 377.5,820.0 Q 378.0,820.0 378.5,820.0 Q 379.0,820.0 379.5,820.0 Q 380.0,820.0 380.5,820.0 Q 381.0,820.0 381.5,820.0 Q 382.0,820.0 382.5,820.0 Q 383.0,820.0 383.5,820.0 Q 384.0,820.0 384.5,820.0 Q 385.0,820.0 385.5,820.0 Q 386.0,820.0 386.5,820.0 Q 387.0,820.0 387.5,820.0 Q 388.0,820.0 388.5,819.5 Q 389.0,819.0 389.0,818.5 Q 389.0,818.0 389.0,817.5 Q 389.0,817.0 389.0,816.5 Q 389.0,816.0 389.0,815.5 Q 389.0,815.0 389.0,814.5 Q 389.0,814.0 389.0,813.5 Q 389.0,813.0 389.0,812.5 Q 389.0,812.0 389.0,811.5 Q 389.0,811.0 389.0,810.5 Q 389.0,810.0 389.0,809.5 Q 389.0,809.0 389.0,808.5 Q 389.0,808.0 389.0,807.5 Q 389.0,807.0 389.0,806.5 Q 389.0,806.0 389.0,805.5 Q 389.0,805.0 389.0,804.5 Q 389.0,804.0 389.0,803.5 Q 389.0,803.0 389.0,802.5 Q 389.0,802.0 389.0,801.5 Q 389.0,801.0 389.0,800.5 Q 389.0,800.0 389.0,799.5 Q 389.0,799.0 389.0,798.5 Q 389.0,798.0 389.0,797.5 Q 389.0,797.0 389.0,796.5 Q 389.0,796.0 389.0,795.5 Q 389.0,795.0 389.0,794.5 Q 389.0,794.0 389.0,793.5 Q 389.0,793.0 389.0,792.5 Q 389.0,792.0 389.0,791.5 Q 389.0,791.0 389.0,790.5 Q 389.0,790.0 389.0,789.5 Q 389.0,789.0 389.0,788.5 Q 389.0,788.0 389.0,787.5 Q 389.0,787.0 389.0,786.5 Q 389.0,786.0 389.0,785.5 Q 389.0,785.0 389.0,784.5 Q 389.0,784.0 389.0,783.5 Q 389.0,783.0 389.0,782.5 Q 389.0,782.0 389.0,781.5 Q 389.0,781.0 389.0,780.5 Q 389.0,780.0 389.0,779.5 Q 389.0,779.0 389.0,778.5 Q 389.0,778.0 389.0,777.5 Q 389.0,777.0 389.0,776.5 Q 389.0,776.0 389.0,775.5 Q 389.0,775.0 389.0,774.5 Q 389.0,774.0 389.0,773.5 Q 389.0,773.0 389.0,772.5 Q 389.0,772.0 389.0,771.5 Q 389.0,771.0 389.0,770.5 Q 389.0,770.0 389.0,769.5 Q 389.0,769.0 389.0,768.5 Q 389.0,768.0 389.0,767.5 Q 389.0,767.0 389.0,766.5 Q 389.0,766.0 389.0,765.5 Q 389.0,765.0 389.0,764.5 Q 389.0,764.0 389.0,763.5 Q 389.0,763.0 388.5,762.5 Q 388.0,762.0 387.5,762.0 Q 387.0,762.0 386.5,762.0 Q 386.0,762.0 385.5,762.0 Q 385.0,762.0 384.5,762.0 Q 384.0,762.0 383.5,762.0 Q 383.0,762.0 382.5,762.0 Q 382.0,762.0 381.5,762.0 Q 381.0,762.0 380.5,762.0 Q 380.0,762.0 379.5,762.0 Q 379.0,762.0 378.5,762.0 Q 378.0,762.0 377.5,762.0 Q 377.0,762.0 376.5,762.0 Q 376.0,762.0 375.5,762.0 Q 375.0,762.0 374.5,762.0 Q 374.0,762.0 373.5,762.0 Q 373.0,762.0 372.5,762.0 Z" fill="#1f4f7a" fill-rule="evenodd"/>
<path d="M 303.5,762.5 Q 304.0,762.0 303.5,762.5 Q 303.0,763.0 303.0,763.5 Q 303.0,764.0 303.0,764.5 Q 303.0,765.0 303.0,765.5 Q 303.0,766.0 303.0,766.5 Q 303.0,767.0 303.0,767.5 Q 303.0,768.0 303.0,768.5 Q 303.0,769.0 303.0,769.5 Q 303.0,770.0 303.0,770.5 Q 303.0,771.0 303.0,771.5 Q 303.0,772.0 303.0,772.5 Q 303.0,773.0 303.0,773.5 Q 303.0,774.0 303.0,774.5 Q 303.0,775.0 303.0,775.5 Q 303.0,776.0 303.0,776.5 Q 303.0,777.0 303.0,777.5 Q 303.0,778.0 303.0,778.5 Q 303.0,779.0 303.0,779.5 Q 303.0,780.0 303.0,780.5 Q 303.0,781.0 303.0,781.5 Q 303.0,782.0 303.0,782.5 Q 303.0,783.0 303.0,783.5 Q 303.0,784.0 303.0,784.5 Q 303.0,785.0 303.0,785.5 Q 303.0,786.0 303.0,786.5 Q 303.0,787.0 303.0,787.5 Q 303.0,788.0 303.0,788.5 Q 303.0,789.0 303.0,789.5 Q 303.0,790.0 303.0,790.5 Q 303.0,791.0 303.0,791.5 Q 303.0,792.0 303.0,792.5 Q 303.0,793.0 303.0,793.5 Q 303.0,794.0 303.0,794.5 Q 303.0,795.0 303.0,795.5 Q 303.0,796.0 303.0,796.5 Q 303.0,797.0 303.0,797.5 Q 303.0,798.0 303.0,798.5 Q 303.0,799.0 303.0,799.5 Q 303.0,800.0 303.0,800.5 Q 303.0,801.0 303.0,801.5 Q 303.0,802.0 303.0,802.5 Q 303.0,803.0 303.0,803.5 Q 303.0,804.0 303.0,804.5 Q 303.0,805.0 303.0,805.5 Q 303.0,806.0 303.0,806.5 Q 303.0,807.0 303.0,807.5 Q 303.0,808.0 303.0,808.5 Q 303.0,809.0 303.0,809.5 Q 303.0,810.0 303.0,810.5 Q 303.0,811.0 303.0,811.5 Q 303.0,812.0 303.0,812.5 Q 303.0,813.0 303.0,813.5 Q 303.0,814.0 303.0,814.5 Q 303.0,815.0 303.0,815.5 Q 303.0,816.0 303.0,816.5 Q 303.0,817.0 303.0,817.5 Q 303.0,818.0 303.0,818.5 Q 303.0,819.0 303.5,819.5 Q 304.0,820.0 304.5,820.0 Q 305.0,820.0 305.5,820.0 Q 306.0,820.0 306.5,820.0 Q 307.0,820.0 307.5,820.0 Q 308.0,820.0 308.5,820.0 Q 309.0,820.0 309.5,820.0 Q 310.0,820.0 310.5,820.0 Q 311.0,820.0 311.5,820.0 Q 312.0,820.0 312.5,820.0 Q 313.0,820.0 313.5,820.0 Q 314.0,820.0 314.5,820.0 Q 315.0,820.0 315.5,820.0 Q 316.0,820.0 316.5,820.0 Q 317.0,820.0 317.5,820.0 Q 318.0,820.0 318.5,820.0 Q 319.0,820.0 319.5,820.0 Q 320.0,820.0 320.5,820.0 Q 321.0,820.0 321.5,820.0 Q 322.0,820.0 322.5,820.0 Q 323.0,820.0 323.5,820.0 Q 324.0,820.0 324.5,820.0 Q 325.0,820.0 325.5,820.0 Q 326.0,820.0 326.5,820.0 Q 327.0,820.0 327.5,820.0 Q 328.0,820.0 328.5,820.0 Q 329.0,820.0 329.5,820.0 Q 330.0,820.0 330.5,820.0 Q 331.0,820.0 331.5,820.0 Q 332.0,820.0 332.5,820.0 Q 333.0,820.0 333.5,820.0 Q 334.0,820.0 334.5,820.0 Q 335.0,820.0 335.5,820.0 Q 336.0,820.0 336.5,820.0 Q 337.0,820.0 337.5,820.0 Q 338.0,820.0 338.5,820.0 Q 339.0,820.0 339.5,820.0 Q 340.0,820.0 340.5,820.0 Q 341.0,820.0 341.5,820.0 Q 342.0,820.0 342.5,820.0 Q 343.0,820.0 343.5,820.0 Q 344.0,820.0 344.5,820.0 Q 345.0,820.0 345.5,819.5 Q 346.0,819.0 346.5,819.0 Q 347.0,819.0 347.5,819.0 Q 348.0,819.0 348.5,819.0 Q 349.0,819.0 349.5,818.5 Q 350.0,818.0 350.5,818.0 Q 351.0,818.0 351.5,817.5 Q 352.0,817.0 352.5,816.5 Q 353.0,816.0 353.5,816.0 Q 354.0,816.0 354.5,815.5 Q 355.0,815.0 355.5,814.5 Q 356.0,814.0 356.0,813.5 Q 356.0,813.0 356.5,812.5 Q 357.0,812.0 357.0,811.5 Q 357.0,811.0 357.5,810.5 Q 358.0,810.0 358.0,809.5 Q 358.0,809.0 358.0,808.5 Q 358.0,808.0 358.5,807.5 Q 359.0,807.0 359.0,806.5 Q 359.0,806.0 359.0,805.5 Q 359.0,805.0 359.0,804.5 Q 359.0,804.0 359.0,803.5 Q 359.0,803.0 359.0,802.5 Q 359.0,802.0 358.5,801.5 Q 358.0,801.0 358.0,800.5 Q 358.0,800.0 358.0,799.5 Q 358.0,799.0 357.5,798.5 Q 357.0,798.0 357.0,797.5 Q 357.0,797.0 357.0,796.5 Q 357.0,796.0 356.5,795.5 Q 356.0,795.0 355.5,794.5 Q 355.0,794.0 354.5,793.5 Q 354.0,793.0 353.5,793.0 Q 353.0,793.0 352.5,792.5 Q 352.0,792.0 351.5,791.5 Q 351.0,791.0 350.5,791.0 Q 350.0,791.0 349.5,790.5 Q 349.0,790.0 349.0,789.5 Q 349.0,789.0 349.5,788.5 Q 350.0,788.0 350.5,787.5 Q 351.0,787.0 351.5,787.0 Q 352.0,787.0 352.5,786.5 Q 353.0,786.0 353.5,785.5 Q 354.0,785.0 354.5,784.5 Q 355.0,784.0 355.5,783.5 Q 356.0,783.0 356.0,782.5 Q 356.0,782.0 356.5,781.5 Q 357.0,781.0 357.0,780.5 Q 357.0,780.0 357.0,779.5 Q 357.0,779.0 357.0,778.5 Q 357.0,778.0 357.0,777.5 Q 357.0,777.0 357.0,776.5 Q 357.0,776.0 357.0,775.5 Q 357.0,775.0 357.0,774.5 Q 357.0,774.0 357.0,773.5 Q 357.0,773.0 357.0,772.5 Q 357.0,772.0 357.0,771.5 Q 357.0,771.0 356.5,770.5 Q 356.0,770.0 356.0,769.5 Q 356.0,769.0 355.5,768.5 Q 355.0,768.0 354.5,767.5 Q 354.0,767.0 354.0,766.5 Q 354.0,766.0 353.5,766.0 Q 353.0,766.0 352.5,765.5 Q 352.0,765.0 351.5,764.5 Q 351.0,764.0 350.5,764.0 Q 350.0,764.0 349.5,763.5 Q 349.0,763.0 348.5,763.0 Q 348.0,763.0 347.5,762.5 Q 347.0,762.0 346.5,762.0 Q 346.0,762.0 345.5,762.0 Q 345.0,762.0 344.5,762.0 Q 344.0,762.0 343.5,762.0 Q 343.0,762.0 342.5,762.0 Q 342.0,762.0 341.5,762.0 Q 341.0,762.0 340.5,762.0 Q 340.0,762.0 339.5,762.0 Q 339.0,762.0 338.5,762.0 Q 338.0,762.0 337.5,762.0 Q 337.0,762.0 336.5,762.0 Q 336.0,762.0 335.5,762.0 Q 335.0,762.0 334.5,762.0 Q 334.0,762.0 333.5,762.0 Q 333.0,762.0 332.5,762.0 Q 332.0,762.0 331.5,762.0 Q 331.0,762.0 330.5,762.0 Q 330.0,762.0 329.5,762.0 Q 329.0,762.0 328.5,762.0 Q 328.0,762.0 327.5,762.0 Q 327.0,762.0 326.5,762.0 Q 326.0,762.0 325.5,762.0 Q 325.0,762.0 324.5,762.0 Q 324.0,762.0 323.5,762.0 Q 323.0,762.0 322.5,762.0 Q 322.0,762.0 321.5,762.0 Q 321.0,762.0 320.5,762.0 Q 320.0,762.0 319.5,762.0 Q 319.0,762.0 318.5,762.0 Q 318.0,762.0 317.5,762.0 Q 317.0,762.0 316.5,762.0 Q 316.0,762.0 315.5,762.0 Q 315.0,762.0 314.5,762.0 Q 314.0,762.0 313.5,762.0 Q 313.0,762.0 312.5,762.0 Q 312.0,762.0 311.5,762.0 Q 311.0,762.0 310.5,762.0 Q 310.0,762.0 309.5,762.0 Q 309.0,762.0 308.5,762.0 Q 308.0,762.0 307.5,762.0 Q 307.0,762.0 306.5,762.0 Q 306.0,762.0 305.5,762.0 Q 305.0,762.0 304.5,762.0 Z M 321.5,796.5 Q 321.0,797.0 321.5,796.5 Q 322.0,796.0 322.5,796.0 Q 323.0,796.0 323.5,796.0 Q 324.0,796.0 324.5,796.0 Q 325.0,796.0 325.5,796.0 Q 326.0,796.0 326.5,796.0 Q 327.0,796.0 327.5,796.0 Q 328.0,796.0 328.5,796.0 Q 329.0,796.0 329.5,796.0 Q 330.0,796.0 330.5,796.0 Q 331.0,796.0 331.5,796.0 Q 332.0,796.0 332.5,796.0 Q 333.0,796.0 333.5,796.0 Q 334.0,796.0 334.5,796.0 Q 335.0,796.0 335.5,796.0 Q 336.0,796.0 336.5,796.0 Q 337.0,796.0 337.5,796.0 Q 338.0,796.0 338.5,796.5 Q 339.0,797.0 339.5,797.5 Q 340.0,798.0 340.5,798.5 Q 341.0,799.0 341.0,799.5 Q 341.0,800.0 341.0,800.5 Q 341.0,801.0 341.0,801.5 Q 341.0,802.0 341.0,802.5 Q 341.0,803.0 341.0,803.5 Q 341.0,804.0 340.5,804.5 Q 340.0,805.0 339.5,805.5 Q 339.0,806.0 338.5,806.5 Q 338.0,807.0 337.5,807.0 Q 337.0,807.0 336.5,807.5 Q 336.0,808.0 335.5,808.0 Q 335.0,808.0 334.5,808.0 Q 334.0,808.0 333.5,808.0 Q 333.0,808.0 332.5,808.0 Q 332.0,808.0 331.5,808.0 Q 331.0,808.0 330.5,808.0 Q 330.0,808.0 329.5,808.0 Q 329.0,808.0 328.5,808.0 Q 328.0,808.0 327.5,808.0 Q 327.0,808.0 326.5,808.0 Q 326.0,808.0 325.5,808.0 Q 325.0,808.0 324.5,808.0 Q 324.0,808.0 323.5,808.0 Q 323.0,808.0 322.5,808.0 Q 322.0,808.0 321.5,807.5 Q 321.0,807.0 320.5,806.5 Q 320.0,806.0 320.0,805.5 Q 320.0,805.0 320.0,804.5 Q 320.0,804.0 320.0,803.5 Q 320.0,803.0 320.0,802.5 Q 320.0,802.0 320.0,801.5 Q 320.0,801.0 320.0,800.5 Q 320.0,800.0 320.0,799.5 Q 320.0,799.0 320.0,798.5 Q 320.0,798.0 320.5,797.5 Z M 321.5,773.5 Q 321.0,774.0 321.5,773.5 Q 322.0,773.0 322.5,773.0 Q 323.0,773.0 323.5,773.0 Q 324.0,773.0 324.5,773.0 Q 325.0,773.0 325.5,773.0 Q 326.0,773.0 326.5,773.0 Q 327.0,773.0 327.5,773.0 Q 328.0,773.0 328.5,773.0 Q 329.0,773.0 329.5,773.0 Q 330.0,773.0 330.5,773.0 Q 331.0,773.0 331.5,773.0 Q 332.0,773.0 332.5,773.0 Q 333.0,773.0 333.5,773.0 Q 334.0,773.0 334.5,773.0 Q 335.0,773.0 335.5,773.0 Q 336.0,773.0 336.5,773.5 Q 337.0,774.0 337.5,774.5 Q 338.0,775.0 338.5,775.5 Q 339.0,776.0 339.0,776.5 Q 339.0,777.0 339.0,777.5 Q 339.0,778.0 339.0,778.5 Q 339.0,779.0 339.0,779.5 Q 339.0,780.0 339.0,780.5 Q 339.0,781.0 339.0,781.5 Q 339.0,782.0 338.5,782.5 Q 338.0,783.0 337.5,783.5 Q 337.0,784.0 336.5,784.5 Q 336.0,785.0 335.5,785.0 Q 335.0,785.0 334.5,785.0 Q 334.0,785.0 333.5,785.0 Q 333.0,785.0 332.5,785.0 Q 332.0,785.0 331.5,785.0 Q 331.0,785.0 330.5,785.0 Q 330.0,785.0 329.5,785.0 Q 329.0,785.0 328.5,785.0 Q 328.0,785.0 327.5,785.0 Q 327.0,785.0 326.5,785.0 Q 326.0,785.0 325.5,785.0 Q 325.0,785.0 324.5,785.0 Q 324.0,785.0 323.5,785.0 Q 323.0,785.0 322.5,785.0 Q 322.0,785.0 321.5,784.5 Q 321.0,784.0 320.5,783.5 Q 320.0,783.0 320.0,782.5 Q 320.0,782.0 320.0,781.5 Q 320.0,781.0 320.0,780.5 Q 320.0,780.0 320.0,779.5 Q 320.0,779.0 320.0,778.5 Q 320.0,778.0 320.0,777.5 Q 320.0,777.0 320.0,776.5 Q 320.0,776.0 320.0,775.5 Q 320.0,775.0 320.5,774.5 Z" fill="#1f4f7a" fill-rule="evenodd"/>
<path d="M 270.5,762.5 Q 271.0,762.0 270.5,762.5 Q 270.0,763.0 270.0,763.5 Q 270.0,764.0 270.0,764.5 Q 270.0,765.0 270.0,765.5 Q 270.0,766.0 270.0,766.5 Q 270.0,767.0 270.0,767.5 Q 270.0,768.0 270.0,768.5 Q 270.0,769.0 270.0,769.5 Q 270.0,770.0 270.0,770.5 Q 270.0,771.0 270.0,771.5 Q 270.0,772.0 270.0,772.5 Q 270.0,773.0 270.0,773.5 Q 270.0,774.0 270.0,774.5 Q 270.0,775.0 270.0,775.5 Q 270.0,776.0 270.0,776.5 Q 270.0,777.0 270.0,777.5 Q 270.0,778.0 270.0,778.5 Q 270.0,779.0 270.0,779.5 Q 270.0,780.0 270.0,780.5 Q 270.0,781.0 270.0,781.5 Q 270.0,782.0 270.0,782.5 Q 270.0,783.0 270.0,783.5 Q 270.0,784.0 270.0,784.5 Q 270.0,785.0 270.0,785.5 Q 270.0,786.0 270.0,786.5 Q 270.0,787.0 270.0,787.5 Q 270.0,788.0 270.0,788.5 Q 270.0,789.0 270.0,789.5 Q 270.0,790.0 270.0,790.5 Q 270.0,791.0 270.0,791.5 Q 270.0,792.0 270.0,792.5 Q 270.0,793.0 270.0,793.5 Q 270.0,794.0 270.0,794.5 Q 270.0,795.0 270.0,795.5 Q 270.0,796.0 270.0,796.5 Q 270.0,797.0 270.0,797.5 Q 270.0,798.0 270.0,798.5 Q 270.0,799.0 270.0,799.5 Q 270.0,800.0 270.0,800.5 Q 270.0,801.0 270.0,801.5 Q 270.0,802.0 270.0,802.5 Q 270.0,803.0 270.0,803.5 Q 270.0,804.0 270.0,804.5 Q 270.0,805.0 270.0,805.5 Q 270.0,806.0 270.0,806.5 Q 270.0,807.0 270.0,807.5 Q 270.0,808.0 270.0,808.5 Q 270.0,809.0 270.0,809.5 Q 270.0,810.0 270.0,810.5 Q 270.0,811.0 270.0,811.5 Q 270.0,812.0 270.0,812.5 Q 270.0,813.0 270.0,813.5 Q 270.0,814.0 270.0,814.5 Q 270.0,815.0 270.0,815.5 Q 270.0,816.0 270.0,816.5 Q 270.0,817.0 270.0,817.5 Q 270.0,818.0 270.0,818.5 Q 270.0,819.0 270.5,819.5 Q 271.0,820.0 271.5,820.0 Q 272.0,820.0 272.5,820.0 Q 273.0,820.0 273.5,820.0 Q 274.0,820.0 274.5,820.0 Q 275.0,820.0 275.5,820.0 Q 276.0,820.0 276.5,820.0 Q 277.0,820.0 277.5,820.0 Q 278.0,820.0 278.5,820.0 Q 279.0,820.0 279.5,820.0 Q 280.0,820.0 280.5,820.0 Q 281.0,820.0 281.5,820.0 Q 282.0,820.0 282.5,820.0 Q 283.0,820.0 283.5,820.0 Q 284.0,820.0 284.5,820.0 Q 285.0,820.0 285.5,820.0 Q 286.0,820.0 286.5,819.5 Q 287.0,819.0 287.0,818.5 Q 287.0,818.0 287.0,817.5 Q 287.0,817.0 287.0,816.5 Q 287.0,816.0 287.0,815.5 Q 287.0,815.0 287.0,814.5 Q 287.0,814.0 287.0,813.5 Q 287.0,813.0 287.0,812.5 Q 287.0,812.0 287.0,811.5 Q 287.0,811.0 287.0,810.5 Q 287.0,810.0 287.0,809.5 Q 287.0,809.0 287.0,808.5 Q 287.0,808.0 287.0,807.5 Q 287.0,807.0 287.0,806.5 Q 287.0,806.0 287.0,805.5 Q 287.0,805.0 287.0,804.5 Q 287.0,804.0 287.0,803.5 Q 287.0,803.0 287.0,802.5 Q 287.0,802.0 287.0,801.5 Q 287.0,801.0 287.0,800.5 Q 287.0,800.0 287.0,799.5 Q 287.0,799.0 287.0,798.5 Q 287.0,798.0 287.0,797.5 Q 287.0,797.0 287.0,796.5 Q 287.0,796.0 287.0,795.5 Q 287.0,795.0 287.0,794.5 Q 287.0,794.0 287.0,793.5 Q 287.0,793.0 287.0,792.5 Q 287.0,792.0 287.0,791.5 Q 287.0,791.0 287.0,790.5 Q 287.0,790.0 287.0,789.5 Q 287.0,789.0 287.0,788.5 Q 287.0,788.0 287.0,787.5 Q 287.0,787.0 287.0,786.5 Q 287.0,786.0 287.0,785.5 Q 287.0,785.0 287.0,784.5 Q 287.0,784.0 287.0,783.5 Q 287.0,783.0 287.0,782.5 Q 287.0,782.0 287.0,781.5 Q 287.0,781.0 287.0,780.5 Q 287.0,780.0 287.0,779.5 Q 287.0,779.0 287.0,778.5 Q 287.0,778.0 287.0,777.5 Q 287.0,777.0 287.0,776.5 Q 287.0,776.0 287.0,775.5 Q 287.0,775.0 287.0,774.5 Q 287.0,774.0 287.0,773.5 Q 287.0,773.0 287.0,772.5 Q 287.0,772.0 287.0,771.5 Q 287.0,771.0 287.0,770.5 Q 287.0,770.0 287.0,769.5 Q 287.0,769.0 287.0,768.5 Q 287.0,768.0 287.0,767.5 Q 287.0,767.0 287.0,766.5 Q 287.0,766.0 287.0,765.5 Q 287.0,765.0 287.0,764.5 Q 287.0,764.0 287.0,763.5 Q 287.0,763.0 286.5,762.5 Q 286.0,762.0 285.5,762.0 Q 285.0,762.0 284.5,762.0 Q 284.0,762.0 283.5,762.0 Q 283.0,762.0 282.5,762.0 Q 282.0,762.0 281.5,762.0 Q 281.0,762.0 280.5,762.0 Q 280.0,762.0 279.5,762.0 Q 279.0,762.0 278.5,762.0 Q 278.0,762.0 277.5,762.0 Q 277.0,762.0 276.5,762.0 Q 276.0,762.0 275.5,762.0 Q 275.0,762.0 274.5,762.0 Q 274.0,762.0 273.5,762.0 Q 273.0,762.0 272.5,762.0 Q 272.0,762.0 271.5,762.0 Z" fill="#1f4f7a" fill-rule="evenodd"/>
<path d="M 213.0,300.5 Q 219.0,292.0 213.0,300.5 Q 207.0,309.0 203.5,317.5 Q 200.0,326.0 197.5,334.5 Q 195.0,343.0 195.0,351.5 Q 195.0,360.0 197.0,368.5 Q 199.0,377.0 205.5,385.0 Q 212.0,393.0 220.5,399.0 Q 229.0,405.0 237.5,407.5 Q 246.0,410.0 254.5,411.0 Q 263.0,412.0 271.5,412.0 Q 280.0,412.0 288.5,411.0 Q 297.0,410.0 305.5,408.0 Q 314.0,406.0 311.5,413.0 Q 309.0,420.0 304.0,428.5 Q 299.0,437.0 296.5,445.5 Q 294.0,454.0 292.0,462.5 Q 290.0,471.0 289.5,479.5 Q 289.0,488.0 289.5,496.5 Q 290.0,505.0 289.0,513.5 Q 288.0,522.0 283.0,530.5 Q 278.0,539.0 275.0,547.5 Q 272.0,556.0 271.0,564.5 Q 270.0,573.0 270.0,581.5 Q 270.0,590.0 270.5,598.5 Q 271.0,607.0 279.0,607.5 Q 287.0,608.0 287.0,599.5 Q 287.0,591.0 288.5,582.5 Q 290.0,574.0 296.5,569.5 Q 303.0,565.0 311.5,559.5 Q 320.0,554.0 325.5,545.5 Q 331.0,537.0 334.5,528.5 Q 338.0,520.0 336.0,511.5 Q 334.0,503.0 332.0,494.5 Q 330.0,486.0 330.0,477.5 Q 330.0,469.0 331.5,460.5 Q 333.0,452.0 337.0,443.5 Q 341.0,435.0 348.5,428.0 Q 356.0,421.0 364.5,418.5 Q 373.0,416.0 381.5,419.0 Q 390.0,422.0 398.5,427.5 Q 407.0,433.0 415.5,437.0 Q 424.0,441.0 418.5,445.5 Q 413.0,450.0 404.5,445.5 Q 396.0,441.0 387.5,436.0 Q 379.0,431.0 370.5,431.5 Q 362.0,432.0 355.5,439.5 Q 349.0,447.0 347.0,455.5 Q 345.0,464.0 344.5,472.5 Q 344.0,481.0 346.5,489.5 Q 349.0,498.0 356.5,491.0 Q 364.0,484.0 372.5,478.0 Q 381.0,472.0 389.5,469.0 Q 398.0,466.0 406.5,465.0 Q 415.0,464.0 423.5,465.0 Q 432.0,466.0 440.5,469.0 Q 449.0,472.0 457.5,478.0 Q 466.0,484.0 474.0,491.0 Q 482.0,498.0 490.5,499.0 Q 499.0,500.0 507.5,499.5 Q 516.0,499.0 520.5,497.0 Q 525.0,495.0 516.5,495.0 Q 508.0,495.0 499.5,491.0 Q 491.0,487.0 488.0,478.5 Q 485.0,470.0 490.0,461.5 Q 495.0,453.0 498.0,444.5 Q 501.0,436.0 503.0,427.5 Q 505.0,419.0 513.0,417.5 Q 521.0,416.0 524.5,410.0 Q 528.0,404.0 536.5,405.5 Q 545.0,407.0 553.5,411.5 Q 562.0,416.0 569.5,424.0 Q 577.0,432.0 581.0,440.5 Q 585.0,449.0 585.5,457.5 Q 586.0,466.0 584.5,474.5 Q 583.0,483.0 579.0,491.5 Q 575.0,500.0 569.0,508.5 Q 563.0,517.0 559.0,525.5 Q 555.0,534.0 553.5,542.5 Q 552.0,551.0 555.5,559.5 Q 559.0,568.0 565.0,576.5 Q 571.0,585.0 574.5,593.0 Q 578.0,601.0 580.0,592.5 Q 582.0,584.0 580.0,575.5 Q 578.0,567.0 577.0,558.5 Q 576.0,550.0 581.0,541.5 Q 586.0,533.0 593.5,524.5 Q 601.0,516.0 608.0,507.5 Q 615.0,499.0 621.5,490.5 Q 628.0,482.0 632.5,473.5 Q 637.0,465.0 639.5,456.5 Q 642.0,448.0 643.5,439.5 Q 645.0,431.0 645.5,422.5 Q 646.0,414.0 645.0,405.5 Q 644.0,397.0 636.0,396.5 Q 628.0,396.0 619.5,395.0 Q 611.0,394.0 602.5,391.5 Q 594.0,389.0 585.5,385.5 Q 577.0,382.0 568.5,378.5 Q 560.0,375.0 551.5,369.5 Q 543.0,364.0 537.0,355.5 Q 531.0,347.0 524.5,344.0 Q 518.0,341.0 509.5,343.5 Q 501.0,346.0 492.5,351.0 Q 484.0,356.0 475.5,360.5 Q 467.0,365.0 458.5,367.5 Q 450.0,370.0 441.5,371.0 Q 433.0,372.0 424.5,371.5 Q 416.0,371.0 407.5,371.0 Q 399.0,371.0 390.5,371.0 Q 382.0,371.0 373.5,373.0 Q 365.0,375.0 356.5,379.5 Q 348.0,384.0 339.5,384.5 Q 331.0,385.0 322.5,383.0 Q 314.0,381.0 305.5,381.0 Q 297.0,381.0 288.5,380.5 Q 280.0,380.0 271.5,379.5 Q 263.0,379.0 254.5,376.5 Q 246.0,374.0 238.5,366.5 Q 231.0,359.0 227.5,350.5 Q 224.0,342.0 222.5,333.5 Q 221.0,325.0 221.0,316.5 Q 221.0,308.0 220.0,300.0 Z" fill="#1f4f7a" fill-rule="evenodd"/>
<path d="M 782.0,285.5 Q 783.0,279.0 782.0,285.5 Q 781.0,292.0 779.5,298.5 Q 778.0,305.0 777.0,311.5 Q 776.0,318.0 774.5,324.5 Q 773.0,331.0 771.5,337.5 Q 770.0,344.0 768.0,350.5 Q 766.0,357.0 764.0,363.5 Q 762.0,370.0 759.5,376.5 Q 757.0,383.0 754.5,389.5 Q 752.0,396.0 749.5,402.5 Q 747.0,409.0 744.0,415.5 Q 741.0,422.0 737.5,428.5 Q 734.0,435.0 730.5,441.5 Q 727.0,448.0 723.5,454.5 Q 720.0,461.0 716.0,467.5 Q 712.0,474.0 708.0,480.5 Q 704.0,487.0 699.5,493.5 Q 695.0,500.0 690.0,506.5 Q 685.0,513.0 679.5,519.5 Q 674.0,526.0 668.5,532.5 Q 663.0,539.0 657.0,545.5 Q 651.0,552.0 644.5,558.5 Q 638.0,565.0 632.0,570.5 Q 626.0,576.0 619.5,581.5 Q 613.0,587.0 606.5,592.0 Q 600.0,597.0 593.5,601.5 Q 587.0,606.0 580.5,610.5 Q 574.0,615.0 567.5,619.5 Q 561.0,624.0 554.5,627.5 Q 548.0,631.0 541.5,634.5 Q 535.0,638.0 528.5,641.0 Q 522.0,644.0 515.5,647.0 Q 509.0,650.0 502.5,652.5 Q 496.0,655.0 489.5,657.0 Q 483.0,659.0 476.5,661.0 Q 470.0,663.0 463.5,665.0 Q 457.0,667.0 450.5,668.5 Q 444.0,670.0 437.5,671.0 Q 431.0,672.0 424.5,673.0 Q 418.0,674.0 411.5,674.5 Q 405.0,675.0 398.5,675.5 Q 392.0,676.0 385.5,676.5 Q 379.0,677.0 372.5,677.0 Q 366.0,677.0 359.5,676.5 Q 353.0,676.0 346.5,675.5 Q 340.0,675.0 333.5,674.5 Q 327.0,674.0 320.5,673.0 Q 314.0,672.0 307.5,670.5 Q 301.0,669.0 294.5,667.5 Q 288.0,666.0 281.5,663.5 Q 275.0,661.0 268.5,658.5 Q 262.0,656.0 255.5,653.5 Q 249.0,651.0 242.5,647.0 Q 236.0,643.0 229.5,639.5 Q 223.0,636.0 216.5,631.5 Q 210.0,627.0 203.5,621.5 Q 197.0,616.0 191.0,610.5 Q 185.0,605.0 179.5,599.0 Q 174.0,593.0 169.0,586.5 Q 164.0,580.0 160.0,573.5 Q 156.0,567.0 154.0,565.5 Q 152.0,564.0 154.5,570.5 Q 157.0,577.0 159.5,583.5 Q 162.0,590.0 164.5,596.5 Q 167.0,603.0 170.5,609.5 Q 174.0,616.0 178.5,622.5 Q 183.0,629.0 188.0,635.5 Q 193.0,642.0 198.5,647.5 Q 204.0,653.0 210.5,659.0 Q 217.0,665.0 223.5,669.5 Q 230.0,674.0 236.5,678.0 Q 243.0,682.0 249.5,685.5 Q 256.0,689.0 262.5,692.0 Q 269.0,695.0 275.5,697.5 Q 282.0,700.0 288.5,702.0 Q 295.0,704.0 301.5,706.0 Q 308.0,708.0 314.5,709.5 Q 321.0,711.0 327.5,712.0 Q 334.0,713.0 340.5,714.0 Q 347.0,715.0 353.5,715.5 Q 360.0,716.0 366.5,716.0 Q 373.0,716.0 379.5,716.0 Q 386.0,716.0 392.5,715.5 Q 399.0,715.0 405.5,714.5 Q 412.0,714.0 418.5,713.0 Q 425.0,712.0 431.5,711.0 Q 438.0,710.0 444.5,708.5 Q 451.0,707.0 457.5,705.5 Q 464.0,704.0 470.5,702.0 Q 477.0,700.0 483.5,698.0 Q 490.0,696.0 496.5,694.0 Q 503.0,692.0 509.5,689.5 Q 516.0,687.0 522.5,684.0 Q 529.0,681.0 535.5,678.0 Q 542.0,675.0 548.5,671.5 Q 555.0,668.0 561.5,664.5 Q 568.0,661.0 574.5,657.0 Q 581.0,653.0 587.5,648.5 Q 594.0,644.0 600.5,639.5 Q 607.0,635.0 613.5,630.0 Q 620.0,625.0 626.5,620.0 Q 633.0,615.0 639.0,609.0 Q 645.0,603.0 651.0,597.0 Q 657.0,591.0 663.0,585.0 Q 669.0,579.0 674.5,572.5 Q 680.0,566.0 685.0,559.5 Q 690.0,553.0 695.0,546.5 Q 700.0,540.0 704.5,533.5 Q 709.0,527.0 713.0,520.5 Q 717.0,514.0 721.0,507.5 Q 725.0,501.0 728.5,494.5 Q 732.0,488.0 735.5,481.5 Q 739.0,475.0 742.0,468.5 Q 745.0,462.0 748.5,455.5 Q 752.0,449.0 754.5,442.5 Q 757.0,436.0 759.5,429.5 Q 762.0,423.0 764.5,416.5 Q 767.0,410.0 769.0,403.5 Q 771.0,397.0 772.5,390.5 Q 774.0,384.0 775.5,377.5 Q 777.0,371.0 778.5,364.5 Q 780.0,358.0 781.0,351.5 Q 782.0,345.0 782.5,338.5 Q 783.0,332.0 783.5,325.5 Q 784.0,319.0 784.5,312.5 Q 785.0,306.0 784.5,299.5 Q 784.0,293.0 783.5,286.5 Q 783.0,280.0 783.0,279.5 Z" fill="#1f4f7a" fill-rule="evenodd"/>
<path d="M 635.5,235.5 Q 638.0,235.0 635.5,235.5 Q 633.0,236.0 630.5,236.5 Q 628.0,237.0 625.5,237.5 Q 623.0,238.0 620.5,238.5 Q 618.0,239.0 615.5,240.0 Q 613.0,241.0 610.5,241.5 Q 608.0,242.0 605.5,243.0 Q 603.0,244.0 600.5,245.0 Q 598.0,246.0 595.5,247.5 Q 593.0,249.0 590.5,250.5 Q 588.0,252.0 585.5,253.5 Q 583.0,255.0 580.5,256.5 Q 578.0,258.0 575.5,260.0 Q 573.0,262.0 570.5,264.0 Q 568.0,266.0 565.5,268.0 Q 563.0,270.0 561.0,272.5 Q 559.0,275.0 557.5,277.5 Q 556.0,280.0 555.5,282.5 Q 555.0,285.0 554.5,287.5 Q 554.0,290.0 554.0,292.5 Q 554.0,295.0 554.5,297.5 Q 555.0,300.0 555.5,302.5 Q 556.0,305.0 557.0,307.5 Q 558.0,310.0 559.5,312.5 Q 561.0,315.0 563.5,317.5 Q 566.0,320.0 568.5,322.0 Q 571.0,324.0 573.5,325.5 Q 576.0,327.0 578.5,328.0 Q 581.0,329.0 583.5,329.5 Q 586.0,330.0 588.5,330.0 Q 591.0,330.0 593.0,328.5 Q 595.0,327.0 595.5,324.5 Q 596.0,322.0 596.0,319.5 Q 596.0,317.0 596.0,314.5 Q 596.0,312.0 595.5,309.5 Q 595.0,307.0 595.0,304.5 Q 595.0,302.0 595.0,299.5 Q 595.0,297.0 595.0,294.5 Q 595.0,292.0 595.5,289.5 Q 596.0,287.0 596.0,284.5 Q 596.0,282.0 596.5,279.5 Q 597.0,277.0 598.0,274.5 Q 599.0,272.0 600.0,269.5 Q 601.0,267.0 603.0,266.0 Q 605.0,265.0 605.0,267.5 Q 605.0,270.0 605.0,272.5 Q 605.0,275.0 605.0,277.5 Q 605.0,280.0 605.0,282.5 Q 605.0,285.0 605.0,287.5 Q 605.0,290.0 605.0,292.5 Q 605.0,295.0 605.0,297.5 Q 605.0,300.0 605.0,302.5 Q 605.0,305.0 605.0,307.5 Q 605.0,310.0 605.0,312.5 Q 605.0,315.0 604.5,317.5 Q 604.0,320.0 604.0,322.5 Q 604.0,325.0 603.0,327.5 Q 602.0,330.0 601.0,332.5 Q 600.0,335.0 597.5,337.5 Q 595.0,340.0 592.5,341.0 Q 590.0,342.0 587.5,342.5 Q 585.0,343.0 582.5,342.5 Q 580.0,342.0 577.5,341.0 Q 575.0,340.0 572.5,338.5 Q 570.0,337.0 567.5,335.0 Q 565.0,333.0 562.5,331.0 Q 560.0,329.0 557.5,326.5 Q 555.0,324.0 552.5,323.0 Q 550.0,322.0 548.0,324.0 Q 546.0,326.0 544.0,328.5 Q 542.0,331.0 541.0,333.5 Q 540.0,336.0 540.0,338.5 Q 540.0,341.0 540.5,343.5 Q 541.0,346.0 543.5,348.0 Q 546.0,350.0 548.5,351.5 Q 551.0,353.0 553.5,354.5 Q 556.0,356.0 558.5,357.5 Q 561.0,359.0 563.5,360.5 Q 566.0,362.0 568.5,363.0 Q 571.0,364.0 573.5,365.5 Q 576.0,367.0 578.5,368.0 Q 581.0,369.0 583.5,370.0 Q 586.0,371.0 588.5,372.0 Q 591.0,373.0 593.5,374.0 Q 596.0,375.0 598.5,376.0 Q 601.0,377.0 603.5,377.5 Q 606.0,378.0 608.5,378.5 Q 611.0,379.0 613.5,379.5 Q 616.0,380.0 618.5,380.5 Q 621.0,381.0 623.5,381.0 Q 626.0,381.0 628.5,381.0 Q 631.0,381.0 633.5,381.0 Q 636.0,381.0 638.5,381.0 Q 641.0,381.0 643.0,379.0 Q 645.0,377.0 646.0,374.5 Q 647.0,372.0 648.5,369.5 Q 650.0,367.0 651.0,364.5 Q 652.0,362.0 653.0,359.5 Q 654.0,357.0 654.5,354.5 Q 655.0,352.0 656.0,349.5 Q 657.0,347.0 658.0,344.5 Q 659.0,342.0 661.0,340.0 Q 663.0,338.0 665.5,337.0 Q 668.0,336.0 670.5,335.0 Q 673.0,334.0 675.5,333.0 Q 678.0,332.0 680.5,330.5 Q 683.0,329.0 685.5,328.0 Q 688.0,327.0 690.5,325.5 Q 693.0,324.0 695.5,323.0 Q 698.0,322.0 700.5,320.5 Q 703.0,319.0 705.5,317.0 Q 708.0,315.0 710.5,313.5 Q 713.0,312.0 715.5,309.5 Q 718.0,307.0 720.0,304.5 Q 722.0,302.0 724.0,299.5 Q 726.0,297.0 727.0,294.5 Q 728.0,292.0 729.0,289.5 Q 730.0,287.0 730.5,284.5 Q 731.0,282.0 731.0,279.5 Q 731.0,277.0 731.0,274.5 Q 731.0,272.0 731.0,269.5 Q 731.0,267.0 730.5,264.5 Q 730.0,262.0 728.5,260.5 Q 727.0,259.0 724.5,259.0 Q 722.0,259.0 719.5,259.0 Q 717.0,259.0 714.5,259.0 Q 712.0,259.0 709.5,259.0 Q 707.0,259.0 704.5,259.0 Q 702.0,259.0 699.5,259.0 Q 697.0,259.0 694.5,259.0 Q 692.0,259.0 689.5,258.0 Q 687.0,257.0 684.5,255.0 Q 682.0,253.0 680.5,250.5 Q 679.0,248.0 677.5,245.5 Q 676.0,243.0 674.5,240.5 Q 673.0,238.0 671.0,237.0 Q 669.0,236.0 666.5,235.5 Q 664.0,235.0 661.5,235.0 Q 659.0,235.0 656.5,235.0 Q 654.0,235.0 651.5,235.0 Q 649.0,235.0 646.5,235.0 Q 644.0,235.0 641.5,235.0 Q 639.0,235.0 638.5,235.0 Z" fill="#1f4f7a" fill-rule="evenodd"/>
</svg>